<svg width="500" height="500" viewBox="0 0 500 500" fill="none" xmlns="http://www.w3.org/2000/svg">
<rect width="500" height="500" fill="#F9FAFB"/>
<path d="M271.029 114.313H228.78C192.806 114.356 158.317 128.667 132.882 154.108C107.447 179.549 93.1434 214.042 93.1094 250.017C93.1519 285.986 107.46 320.47 132.894 345.904C158.328 371.338 192.811 385.645 228.78 385.687H271.19C307.164 385.653 341.657 371.35 367.098 345.915C392.539 320.48 406.85 285.991 406.893 250.017C406.859 214.009 392.529 179.487 367.052 154.04C341.576 128.594 307.037 114.305 271.029 114.313ZM109.9 250.017C109.9 218.513 122.414 188.299 144.691 166.023C166.967 143.747 197.18 131.232 228.684 131.232C235.321 131.23 241.946 131.777 248.492 132.869C276.204 137.452 301.378 151.751 319.508 173.204C337.638 194.657 347.538 221.865 347.436 249.952C347.403 267.989 340.996 285.432 329.347 299.202C317.698 312.972 301.556 322.183 283.774 325.204C295.619 316.556 305.253 305.232 311.892 292.155C318.531 279.078 321.987 264.618 321.978 249.952C322.014 229.262 315.157 209.149 302.489 192.789C289.821 176.43 272.065 164.756 252.024 159.612C244.401 157.641 236.558 156.649 228.684 156.658C203.982 156.735 180.317 166.595 162.868 184.08C145.419 201.565 135.608 225.25 135.583 249.952C135.52 272.875 141.282 295.438 152.328 315.524C163.373 335.61 179.34 352.563 198.731 364.788C173.353 358.124 150.89 343.255 134.841 322.497C118.791 301.738 110.056 276.256 109.996 250.017H109.9ZM249.841 176.723C265.739 181.302 279.715 190.929 289.659 204.151C299.603 217.373 304.975 233.473 304.963 250.017C304.968 266.555 299.593 282.646 289.65 295.862C279.706 309.078 265.734 318.7 249.841 323.277C233.948 318.7 219.975 309.078 210.032 295.862C200.088 282.646 194.713 266.555 194.718 250.017C194.706 233.473 200.078 217.373 210.022 204.151C219.966 190.929 233.943 181.302 249.841 176.723ZM271.029 368.737H270.548C264.094 368.701 257.653 368.153 251.285 367.099C224.26 362.617 199.63 348.889 181.606 328.259C163.582 307.629 153.283 281.379 152.469 253.997C152.469 252.648 152.469 251.333 152.469 250.017C152.49 231.977 158.892 214.525 170.544 200.753C182.195 186.98 198.344 177.775 216.132 174.765C204.281 183.41 194.64 194.731 187.996 207.808C181.351 220.885 177.89 235.348 177.896 250.017C177.867 270.702 184.727 290.807 197.395 307.159C210.062 323.512 227.814 335.182 247.85 340.325C255.47 342.31 263.315 343.303 271.19 343.278C295.919 343.252 319.629 333.42 337.119 315.936C354.609 298.453 364.45 274.746 364.484 250.017C364.555 227.092 358.797 204.525 347.751 184.437C336.705 164.349 320.732 147.4 301.335 135.181C326.708 141.853 349.159 156.738 365.182 177.512C381.205 198.286 389.9 223.781 389.91 250.017C389.901 265.618 386.82 281.066 380.841 295.476C374.861 309.887 366.102 322.978 355.062 334.003C344.023 345.027 330.919 353.768 316.501 359.728C302.082 365.688 286.631 368.75 271.029 368.737Z" fill="#FC5200"/>
</svg>
